# xmcd
#
# Track frame offsets: 
#        150
#        14977
#        32043
#        44736
#        56755
#        74328
#        94817
#        110500
#        128067
#        143866
#
# Disc length: 2055 seconds
#
# Revision: 0
# Processed by: cddbd v1.5.2PL0 Copyright (c) Steve Scherf et al.
# Submitted via: ExactAudioCopy v1.3
#
DISCID=9908050a
DTITLE=Harmony James - Resignation
DYEAR=2019
DGENRE=Country
TTITLE0=Change
TTITLE1=Grief
TTITLE2=Little Kindnesses
TTITLE3=Anna O
TTITLE4=The Life She Left
TTITLE5=The Bed That You Made
TTITLE6=I Can Wait
TTITLE7=Concrete Shoes
TTITLE8=Can I Be That To You
TTITLE9=Bird In The Hand
EXTD=
EXTT0=
EXTT1=
EXTT2=
EXTT3=
EXTT4=
EXTT5=
EXTT6=
EXTT7=
EXTT8=
EXTT9=
PLAYORDER=
